<?xml version="1.0" encoding="UTF-8"?>
<svg xmlns="http://www.w3.org/2000/svg" viewBox="0 0 800 360" preserveAspectRatio="xMidYMid slice">
  <defs>
    <linearGradient id="bg2" x1="0" y1="0" x2="1" y2="1">
      <stop offset="0%" stop-color="#0A1226"/>
      <stop offset="50%" stop-color="#1A3470"/>
      <stop offset="100%" stop-color="#E97132"/>
    </linearGradient>
    <linearGradient id="paper2" x1="0" y1="0" x2="0" y2="1">
      <stop offset="0%" stop-color="#FFFFFF"/>
      <stop offset="100%" stop-color="#F1F4F9"/>
    </linearGradient>
    <radialGradient id="glow" cx="0.5" cy="0.5" r="0.5">
      <stop offset="0%" stop-color="#E97132" stop-opacity="0.8"/>
      <stop offset="100%" stop-color="#E97132" stop-opacity="0"/>
    </radialGradient>
  </defs>
  <rect width="800" height="360" fill="url(#bg2)"/>
  <!-- Glow IA -->
  <circle cx="400" cy="180" r="200" fill="url(#glow)"/>
  <!-- Excel populado -->
  <rect x="120" y="60" width="560" height="240" rx="10" fill="url(#paper2)" stroke="#E1E5EE" stroke-width="2"/>
  <rect x="120" y="60" width="560" height="36" rx="10" fill="#207245"/>
  <text x="148" y="84" font-family="Inter,Calibri,sans-serif" font-weight="700" font-size="16" fill="#FFFFFF">Excel · planilha-Dois A.xlsx</text>
  <text x="640" y="84" font-family="Inter,Calibri,sans-serif" font-weight="700" font-size="13" fill="#A4F0B5" text-anchor="end">✓ IA ativa</text>
  <!-- Tabela completamente preenchida (rápido) -->
  <g stroke="#D6DBE5" stroke-width="1">
    <line x1="120" y1="120" x2="680" y2="120"/>
    <line x1="120" y1="148" x2="680" y2="148"/>
    <line x1="120" y1="176" x2="680" y2="176"/>
    <line x1="120" y1="204" x2="680" y2="204"/>
    <line x1="120" y1="232" x2="680" y2="232"/>
    <line x1="120" y1="260" x2="680" y2="260"/>
    <line x1="220" y1="96" x2="220" y2="300"/>
    <line x1="380" y1="96" x2="380" y2="300"/>
    <line x1="520" y1="96" x2="520" y2="300"/>
  </g>
  <g font-family="Inter,Calibri,sans-serif" font-size="12" fill="#1A1A1A">
    <text x="138" y="114">Unid</text><text x="238" y="114">Tipo</text><text x="398" y="114">Valor</text><text x="538" y="114">Status</text>
    <text x="138" y="138">Apto 101</text><text x="238" y="138">Sala A</text><text x="398" y="138">R$ 280.000</text><text x="538" y="138" fill="#207245" font-weight="700">Vendido</text>
    <text x="138" y="166">Apto 102</text><text x="238" y="166">Sala A</text><text x="398" y="166">R$ 285.000</text><text x="538" y="166" fill="#207245" font-weight="700">Vendido</text>
    <text x="138" y="194">Apto 103</text><text x="238" y="194">Sala B</text><text x="398" y="194">R$ 310.000</text><text x="538" y="194" fill="#E97132" font-weight="700">Reserva</text>
    <text x="138" y="222">Apto 104</text><text x="238" y="222">Sala B</text><text x="398" y="222">R$ 315.000</text><text x="538" y="222" fill="#207245" font-weight="700">Vendido</text>
    <text x="138" y="250">Apto 105</text><text x="238" y="250">Sala C</text><text x="398" y="250">R$ 340.000</text><text x="538" y="250" fill="#207245" font-weight="700">Vendido</text>
    <text x="138" y="278">Apto 106</text><text x="238" y="278">Sala C</text><text x="398" y="278">R$ 345.000</text><text x="538" y="278" fill="#207245" font-weight="700">Vendido</text>
  </g>
  <!-- Robot/IA badge -->
  <circle cx="700" cy="320" r="22" fill="#E97132"/>
  <text x="700" y="326" font-family="Inter,Calibri,sans-serif" font-weight="700" font-size="18" fill="#FFFFFF" text-anchor="middle">⚡</text>
  <!-- Texto descritivo -->
  <text x="400" y="334" font-family="Inter,Calibri,sans-serif" font-weight="700" font-size="15" fill="#FFFFFF" text-anchor="middle" opacity="0.85">IA · MESMO RESULTADO EM SEGUNDOS</text>
</svg>
